<svg width="33" height="40" viewBox="0 0 33 40" fill="none" xmlns="http://www.w3.org/2000/svg">
<g clip-path="url(#clip0_396_57)">
<path d="M31.6921 13.8496C31.4606 14.026 27.3738 16.2883 27.3738 21.3188C27.3738 27.1373 32.5741 29.1957 32.7298 29.2467C32.7058 29.3722 31.9036 32.0658 29.9879 34.8104C28.2798 37.2256 26.4958 39.637 23.7819 39.637C21.068 39.637 20.3695 38.0882 17.2366 38.0882C14.1834 38.0882 13.0979 39.6879 10.6154 39.6879C8.13303 39.6879 6.40092 37.453 4.4094 34.7085C2.10258 31.4855 0.23877 26.4786 0.23877 21.7265C0.23877 14.1044 5.28343 10.062 10.2483 10.062C12.8863 10.062 15.0854 11.7637 16.7417 11.7637C18.3181 11.7637 20.7766 9.96008 23.7779 9.96008C24.9153 9.96008 29.0021 10.062 31.6921 13.8496ZM22.3531 6.73322C23.5943 5.28643 24.4723 3.27896 24.4723 1.27149C24.4723 0.993108 24.4484 0.710807 24.3965 0.483398C22.377 0.557894 19.9744 1.80472 18.5257 3.4554C17.3882 4.72575 16.3266 6.73322 16.3266 8.76814C16.3266 9.07397 16.3785 9.37979 16.4024 9.47782C16.5302 9.50134 16.7377 9.52879 16.9452 9.52879C18.7572 9.52879 21.036 8.33685 22.3531 6.73322Z" fill="white"/>
</g>
<defs>
<clipPath id="clip0_396_57">
<rect width="32.487" height="39.2084" fill="white" transform="translate(0.238281 0.483398)"/>
</clipPath>
</defs>
</svg>
