<svg width="116" height="46" viewBox="0 0 116 46" fill="none" xmlns="http://www.w3.org/2000/svg">
<path d="M15.0283 10.0576C6.85192 10.0576 0.0385742 13.4873 0.0385742 23.8344C0.0385742 32.0315 4.62006 37.1936 15.2394 37.1936C27.7388 37.1936 28.5401 29.0528 28.5401 29.0528H22.4835C22.4835 29.0528 21.1849 33.4363 14.8699 33.4363C9.72651 33.4363 6.02717 30.001 6.02717 25.186H29.1735V22.1645C29.1735 17.4008 26.1149 10.0576 15.0283 10.0576ZM14.8171 13.9193C19.7131 13.9193 23.0509 16.8848 23.0509 21.3295H6.16113C6.16113 16.6109 10.5178 13.9193 14.8171 13.9193Z" fill="white"/>
<path d="M29.169 0.0383301V31.9975C29.169 33.8116 29.0381 36.3588 29.0381 36.3588H34.8148C34.8148 36.3588 35.0221 34.5294 35.0221 32.8575C35.0221 32.8575 37.8762 37.2721 45.6366 37.2721C53.8086 37.2721 59.3596 31.6626 59.3596 23.6258C59.3596 16.1493 54.2608 10.1361 45.6498 10.1361C37.5862 10.1361 35.0805 14.4413 35.0805 14.4413V0.0383301H29.169ZM44.1587 14.089C49.7082 14.089 53.237 18.1612 53.237 23.6258C53.237 29.4856 49.1613 33.3191 44.1983 33.3191C38.2754 33.3191 35.0805 28.7467 35.0805 23.678C35.0805 18.9549 37.9474 14.089 44.1587 14.089Z" fill="white"/>
<path d="M73.7163 10.0576C61.4156 10.0576 60.6267 16.7168 60.6267 17.7809H66.7492C66.7492 17.7809 67.0703 13.8932 73.294 13.8932C77.3383 13.8932 80.4722 15.7234 80.4722 19.2421V20.4945H73.294C63.7645 20.4945 58.7266 23.2508 58.7266 28.8441C58.7266 34.3487 63.3814 37.3437 69.6719 37.3437C78.2449 37.3437 81.0066 32.6601 81.0066 32.6601C81.0066 34.523 81.1518 36.3587 81.1518 36.3587H86.5947C86.5947 36.3587 86.3836 34.0833 86.3836 32.6275V20.0445C86.3836 11.7939 79.6527 10.0576 73.7163 10.0576ZM80.4722 24.2518V25.9218C80.4722 28.0998 79.1128 33.5146 71.1102 33.5146C66.728 33.5146 64.8491 31.3523 64.8491 28.8441C64.8491 24.2812 71.1764 24.2518 80.4722 24.2518Z" fill="white"/>
<path d="M83.0864 11.1025H89.9743L99.8593 30.683L109.722 11.1025H115.961L97.9969 45.9619H91.4522L96.636 36.2444L83.0864 11.1025Z" fill="white"/>
</svg>
