<svg width="89" height="32" viewBox="0 0 89 32" fill="none" xmlns="http://www.w3.org/2000/svg">
<path d="M5.25689 22.8522C5.62996 23.8423 6.14646 24.6888 6.8065 25.3918C7.46654 26.0949 8.24849 26.6329 9.15235 27.006C10.0563 27.379 11.0391 27.5655 12.1009 27.5655C13.134 27.5655 14.1024 27.3718 15.0064 26.9843C15.9104 26.5969 16.6995 26.0517 17.3738 25.3487C18.0481 24.6456 18.5718 23.8063 18.9449 22.8307C19.318 21.855 19.5045 20.7646 19.5045 19.5593V0.964355L24.0241 0.964355V31.0951H19.5475V28.2972C18.5432 29.3589 17.3594 30.1767 15.9964 30.7508C14.6332 31.3246 13.1627 31.6116 11.5844 31.6116C9.97735 31.6116 8.47803 31.3317 7.08623 30.7722C5.69453 30.2126 4.48922 29.4164 3.47059 28.3833C2.45196 27.3502 1.64839 26.1092 1.06017 24.66C0.471847 23.2109 0.177734 21.5968 0.177734 19.8175L0.177734 0.964355H4.69733V19.5593C4.69733 20.7646 4.88382 21.8621 5.25689 22.8522Z" fill="white"/>
<path d="M31.8147 0.964355V11.9405C32.819 10.9362 33.9813 10.1399 35.3013 9.55162C36.6212 8.9633 38.0561 8.66918 39.6056 8.66918C41.2127 8.66918 42.719 8.97044 44.1252 9.57305C45.5313 10.1757 46.7508 10.9935 47.7839 12.0266C48.817 13.0597 49.6349 14.2792 50.2375 15.6853C50.8401 17.0915 51.1413 18.5837 51.1413 20.1619C51.1413 21.7401 50.8401 23.2252 50.2375 24.6169C49.6349 26.0087 48.817 27.2211 47.7839 28.254C46.7508 29.2871 45.5313 30.105 44.1252 30.7076C42.719 31.3102 41.2126 31.6115 39.6056 31.6115C38.056 31.6115 36.6141 31.3174 35.2797 30.729C33.9454 30.1408 32.776 29.3445 31.7716 28.3401V31.095H27.4673V0.964355H31.8147ZM32.3097 23.1319C32.697 24.0503 33.2351 24.8537 33.9238 25.5424C34.6126 26.2312 35.416 26.7764 36.3343 27.1782C37.2526 27.5799 38.2426 27.7808 39.3044 27.7808C40.3375 27.7808 41.313 27.5799 42.2313 27.1782C43.1495 26.7764 43.9458 26.2312 44.6203 25.5424C45.2946 24.8538 45.8326 24.0503 46.2344 23.1319C46.6361 22.2137 46.837 21.2237 46.837 20.1619C46.837 19.1002 46.6361 18.103 46.2344 17.1703C45.8326 16.2377 45.2946 15.4271 44.6203 14.7384C43.9459 14.0498 43.1496 13.5117 42.2313 13.1243C41.3129 12.7369 40.3374 12.5431 39.3044 12.5431C38.2713 12.5431 37.2957 12.7368 36.3774 13.1243C35.4592 13.5117 34.6557 14.0498 33.9669 14.7384C33.2783 15.4271 32.733 16.2377 32.3313 17.1703C31.9295 18.103 31.7287 19.1002 31.7287 20.1619C31.7286 21.2237 31.9223 22.2137 32.3097 23.1319Z" fill="white"/>
<path d="M53.5941 15.7284C54.168 14.351 54.9572 13.1387 55.9615 12.0913C56.9657 11.0439 58.1568 10.2189 59.5342 9.61626C60.9116 9.01366 62.4038 8.7124 64.0107 8.7124C65.589 8.7124 67.0525 8.99937 68.4013 9.57321C69.7499 10.1472 70.9121 10.9435 71.8877 11.9622C72.8634 12.9808 73.6239 14.1861 74.169 15.5778C74.7143 16.9696 74.9869 18.4834 74.9869 20.1191V21.5395H57.1237C57.2673 22.4291 57.5543 23.2541 57.9847 24.0144C58.4152 24.7749 58.9531 25.4349 59.5988 25.9945C60.2444 26.5541 60.9762 26.9917 61.794 27.3073C62.6119 27.6229 63.4798 27.7808 64.3982 27.7808C67.0096 27.7808 69.1187 26.7047 70.7257 24.5525L73.8679 26.8768C72.7774 28.3403 71.4288 29.4882 69.8218 30.3203C68.2148 31.1525 66.407 31.5686 64.3983 31.5686C62.7626 31.5686 61.2346 31.2815 59.8141 30.7077C58.3936 30.1338 57.1597 29.3303 56.1124 28.2972C55.065 27.264 54.24 26.0517 53.6374 24.66C53.0348 23.2683 52.7334 21.7545 52.7334 20.1189C52.7332 18.5694 53.0203 17.1058 53.5941 15.7284ZM59.6418 14.0281C58.4222 15.0469 57.6116 16.4028 57.2098 18.0958H70.5965C70.2235 16.4028 69.4271 15.0469 68.2075 14.0281C66.9879 13.0095 65.5603 12.5001 63.9247 12.5001C62.289 12.5001 60.8614 13.0095 59.6418 14.0281Z" fill="white"/>
<path d="M83.1224 14.5234C82.2041 15.5277 81.745 16.8908 81.745 18.6126V31.0954H77.3975V9.143H81.7018V11.8548C82.2471 10.9652 82.9573 10.2621 83.8325 9.74561C84.7077 9.229 85.7479 8.9707 86.9533 8.9707H88.4597V13.0168H86.6519C85.2172 13.0169 84.0406 13.5191 83.1224 14.5234Z" fill="white"/>
</svg>
