<svg width="157" height="38" viewBox="0 0 157 38" fill="none" xmlns="http://www.w3.org/2000/svg">
<path d="M12.959 15.1168V13.6927C12.4646 13.6143 11.9653 13.5714 11.4648 13.5642C6.61958 13.554 2.32983 16.6938 0.874841 21.3155C-0.580101 25.9372 1.13731 30.9682 5.11465 33.7355C2.13531 30.5469 1.30802 25.9052 3.00235 21.8837C4.69668 17.8622 8.59621 15.212 12.959 15.1168Z" fill="white"/>
<path d="M13.2272 31.2489C15.9363 31.2453 18.1631 29.1111 18.2817 26.4046V2.25283H22.6942C22.6041 1.74817 22.5611 1.23624 22.5658 0.723633L16.5307 0.723633V24.8521C16.4304 27.5723 14.1983 29.727 11.4762 29.7314C10.6628 29.7245 9.86261 29.5245 9.1416 29.1478C9.60887 29.7952 10.2225 30.323 10.9325 30.6881C11.6426 31.0533 12.4288 31.2454 13.2272 31.2489H13.2272ZM30.9354 10.4474V9.10496C29.3115 9.10552 27.7237 8.62631 26.3712 7.72751C27.5568 9.1058 29.159 10.0606 30.9354 10.4474H30.9354Z" fill="white"/>
<path d="M26.3711 7.72784C25.0388 6.21072 24.3044 4.2605 24.3049 2.24146H22.694C22.9021 3.35777 23.3354 4.41998 23.9676 5.36326C24.5998 6.30654 25.4176 7.1111 26.3711 7.72784ZM11.4645 19.5995C9.1397 19.6114 7.12139 21.204 6.56927 23.4623C6.01711 25.7206 7.07282 28.0649 9.12983 29.1481C8.01526 27.6093 7.8578 25.5754 8.72224 23.8835C9.58677 22.1914 11.3271 21.1272 13.2271 21.1286C13.7338 21.135 14.2369 21.2136 14.7213 21.3621V15.222C14.2266 15.1479 13.7273 15.1089 13.2271 15.1053H12.9586V19.7745C12.4717 19.6439 11.9683 19.585 11.4644 19.5994L11.4645 19.5995Z" fill="white"/>
<path d="M30.9348 10.4475V15.1167C27.9287 15.1109 25.0005 14.1594 22.5652 12.3969V24.6654C22.5523 30.7873 17.5859 35.7432 11.464 35.7432C9.19048 35.7473 6.97171 35.0458 5.11377 33.7354C8.21443 37.0702 13.0399 38.168 17.2781 36.5027C21.5162 34.8373 24.3035 30.7482 24.3044 26.1946V13.9611C26.7479 15.7121 29.6797 16.6512 32.6858 16.6459V10.6343C32.0973 10.6324 31.5105 10.5698 30.9348 10.4475H30.9348Z" fill="white"/>
<path d="M22.566 24.6656V12.3971C25.0088 14.1495 27.941 15.0888 30.9474 15.082V10.4127C29.1713 10.0376 27.5653 9.09533 26.3715 7.72784C25.418 7.1111 24.6002 6.30654 23.968 5.36326C23.3358 4.41998 22.9025 3.35777 22.6944 2.24146H18.282V26.4049C18.1937 28.5607 16.7498 30.424 14.6843 31.0476C12.6188 31.6712 10.385 30.9182 9.11852 29.1714C7.06156 28.0882 6.00585 25.7439 6.55797 23.4857C7.11013 21.2274 9.12839 19.6347 11.4532 19.6228C11.9599 19.6274 12.4633 19.706 12.9474 19.8563V15.187C8.56005 15.2613 4.63105 17.9208 2.93197 21.9664C1.23284 26.012 2.08453 30.6793 5.10298 33.8641C6.97924 35.1312 9.20122 35.7876 11.4649 35.7435C17.5868 35.7435 22.5531 30.7875 22.566 24.6656Z" fill="white"/>
<path d="M51.8187 35.758H45.4384V15.0191H39.0703L39.0581 9.33418H58.7235L56.918 15.0191H51.8187V35.758ZM103.703 35.758H97.3345V15.0191H90.9421L90.9299 9.33418H111.047L109.241 15.0191H103.703V35.758ZM59.919 17.7396H66.2261V35.758H59.9678L59.919 17.7396ZM76.8884 26.9867L75.0219 28.7922V35.758H68.727V9.26099H75.0219V21.5702L81.2679 15.4705H88.7828L80.8898 23.1317L89.7343 35.758H82.7929L76.8884 26.9867ZM143.619 26.9867L141.813 28.7922V35.758H135.506L135.445 9.26099H141.813V21.5702L148.047 15.4705H155.562L147.669 23.1317L156.453 35.758H149.511L143.619 26.9867Z" fill="white"/>
<path d="M63.0786 15.6779C64.8303 15.6779 66.2504 14.2578 66.2504 12.5061C66.2504 10.7543 64.8303 9.33423 63.0786 9.33423C61.3268 9.33423 59.9067 10.7543 59.9067 12.5061C59.9067 14.2578 61.3268 15.6779 63.0786 15.6779Z" fill="white"/>
<path d="M110.242 24.9737C110.243 19.3456 114.573 14.6654 120.184 14.2261H119.245C113.542 14.5587 109.088 19.28 109.088 24.992C109.088 30.7041 113.542 35.4254 119.245 35.758H120.184C114.559 35.3176 110.224 30.6159 110.242 24.9737Z" fill="white"/>
<path d="M122.636 14.1894H121.685C127.277 14.6513 131.581 19.3253 131.581 24.9371C131.581 30.5489 127.277 35.2228 121.685 35.6847H122.636C128.592 35.6847 133.42 30.8564 133.42 24.9005C133.42 18.9445 128.592 14.1162 122.636 14.1162V14.1894Z" fill="white"/>
<path d="M120.928 30.2192C118.031 30.2192 115.683 27.8706 115.683 24.9735C115.683 22.0763 118.031 19.7277 120.928 19.7277C123.825 19.7277 126.174 22.0763 126.174 24.9735C126.167 27.8678 123.823 30.2125 120.928 30.2192ZM120.928 14.1892C114.972 14.1892 110.144 19.0175 110.144 24.9735C110.144 30.9294 114.972 35.7577 120.928 35.7577C126.884 35.7577 131.713 30.9294 131.713 24.9735C131.713 22.1133 130.576 19.3703 128.554 17.3478C126.531 15.3254 123.788 14.1892 120.928 14.1892Z" fill="white"/>
</svg>
