<svg width="82" height="33" viewBox="0 0 82 33" fill="none" xmlns="http://www.w3.org/2000/svg">
<path d="M0 30.7021H15.9435V32.9918H0V30.7021Z" fill="white"/>
<path d="M0 26.3103H15.9435V28.608H0V26.3103Z" fill="white"/>
<path d="M4.54834 21.9268H11.3871V24.2245H4.54834V21.9268Z" fill="white"/>
<path d="M4.54834 17.543H11.3871V19.8408H4.54834V17.543Z" fill="white"/>
<path d="M4.54834 13.1592H11.3871V15.457H4.54834V13.1592Z" fill="white"/>
<path d="M4.54834 8.76733H11.3871V11.0651H4.54834V8.76733Z" fill="white"/>
<path d="M15.9435 4.38354H0V6.68134H15.9435V4.38354Z" fill="white"/>
<path d="M15.9435 0H0V2.29779H15.9435V0Z" fill="white"/>
<path d="M18.2178 28.6081H42.7382C43.1523 27.8992 43.461 27.1251 43.6479 26.3103H18.2178V28.6081Z" fill="white"/>
<path d="M40.8297 17.543H22.7744V19.8408H42.7384C42.2185 18.9607 41.5768 18.1867 40.8297 17.543Z" fill="white"/>
<path d="M22.7744 13.1592V15.457H40.8297C41.5932 14.8133 42.2347 14.0392 42.7384 13.1592H22.7744Z" fill="white"/>
<path d="M42.7383 4.38354H18.2178V6.68134H43.6479C43.4367 5.86651 43.1281 5.09249 42.7383 4.38354Z" fill="white"/>
<path d="M35.201 0H18.2178V2.29779H41.0569C39.53 0.879975 37.4589 0 35.201 0Z" fill="white"/>
<path d="M29.605 8.76733H22.7744V11.0651H29.605V8.76733Z" fill="white"/>
<path d="M36.4434 11.0651H43.5907C43.7938 10.3318 43.8994 9.55772 43.8994 8.76733H36.4434V11.0651Z" fill="white"/>
<path d="M22.7744 21.9268H29.605V24.2245H22.7744V21.9268Z" fill="white"/>
<path d="M36.4434 21.9268V24.2245H43.8994C43.8994 23.4342 43.7938 22.6601 43.5907 21.9268H36.4434Z" fill="white"/>
<path d="M18.2178 32.9755L35.201 32.9999C37.4751 32.9999 39.53 32.12 41.065 30.7021H18.2178V32.9755Z" fill="white"/>
<path d="M45.5566 30.7021H56.9436V32.9918H45.5566V30.7021Z" fill="white"/>
<path d="M45.5566 26.3103H56.9436V28.608H45.5566V26.3103Z" fill="white"/>
<path d="M50.105 21.9268H56.9437V24.2245H50.105V21.9268Z" fill="white"/>
<path d="M50.105 17.543H56.9437V19.8408H50.105V17.543Z" fill="white"/>
<path d="M60.1113 4.38354H45.5566V6.68134H60.8991L60.1113 4.38354Z" fill="white"/>
<path d="M58.6005 0H45.5566V2.29779H59.3884L58.6005 0Z" fill="white"/>
<path d="M70.605 30.7021H82.0002V32.9918H70.605V30.7021Z" fill="white"/>
<path d="M70.605 26.3103H82.0002V28.608H70.605V26.3103Z" fill="white"/>
<path d="M70.605 21.9268H77.4437V24.2245H70.605V21.9268Z" fill="white"/>
<path d="M70.605 17.543H77.4437V19.8408H70.605V17.543Z" fill="white"/>
<path d="M70.605 15.457H77.4437V13.1592H70.605H64.416L63.7744 15.017L63.1327 13.1592H56.9437H50.105V15.457H56.9437V13.3466L57.6666 15.457H69.8822L70.605 13.3466V15.457Z" fill="white"/>
<path d="M77.4435 8.76733H65.9265L65.1387 11.0651H77.4435V8.76733Z" fill="white"/>
<path d="M68.9563 0L68.1685 2.29779H82.0003V0H68.9563Z" fill="white"/>
<path d="M63.7742 32.9755L64.562 30.7021H62.9863L63.7742 32.9755Z" fill="white"/>
<path d="M62.2636 28.608H65.2849L66.0971 26.3103H61.4595L62.2636 28.608Z" fill="white"/>
<path d="M60.7284 24.2245H66.8199L67.624 21.9268H59.9243L60.7284 24.2245Z" fill="white"/>
<path d="M59.2014 19.8408H68.3549L69.1347 17.543H58.4136L59.2014 19.8408Z" fill="white"/>
<path d="M50.105 11.0651H62.4098L61.622 8.76733H50.105V11.0651Z" fill="white"/>
<path d="M66.6577 6.68134H82.0002V4.38354H67.4375L66.6577 6.68134Z" fill="white"/>
</svg>
