<svg width="141" height="29" viewBox="0 0 141 29" fill="none" xmlns="http://www.w3.org/2000/svg">
<g clip-path="url(#clip0_396_71)">
<path d="M4.60819 18.6879C4.60819 20.317 4.96575 21.5677 5.4331 22.3244C6.04584 23.3154 6.95976 23.7353 7.89149 23.7353C9.09324 23.7353 10.1926 23.4371 12.3113 20.5069C14.0085 18.1583 16.0085 14.8616 17.3542 12.7949L19.633 9.29353C21.2161 6.86184 23.0484 4.15865 25.1492 2.32635C26.8643 0.830839 28.7144 0 30.5764 0C33.7024 0 36.6801 1.81153 38.9589 5.20907C41.4529 8.93004 42.6636 13.6169 42.6636 18.4535C42.6636 21.3288 42.0968 23.4415 41.1325 25.1106C40.2008 26.7248 38.3848 28.3376 35.33 28.3376V23.7353C37.9456 23.7353 38.5984 21.3318 38.5984 18.5811C38.5984 14.6613 37.6845 10.3113 35.6712 7.20308C34.2424 4.99839 32.3909 3.65124 30.3538 3.65124C28.1506 3.65124 26.3777 5.31292 24.3851 8.27575C23.3258 9.8499 22.2383 11.7682 21.0173 13.9329L19.6731 16.3141C16.9729 21.1018 16.2889 22.1923 14.9388 23.992C12.5724 27.1432 10.5517 28.3376 7.89149 28.3376C4.73578 28.3376 2.74029 26.9711 1.50441 24.9118C0.495536 23.2338 0 21.0321 0 18.5233L4.60819 18.6879Z" fill="white"/>
<path d="M3.63379 5.53398C5.74649 2.27739 8.79538 0 12.2923 0C14.3175 0 16.3308 0.599391 18.4331 2.31596C20.7328 4.19277 23.1837 7.2832 26.2415 12.3765L27.3379 14.2044C29.9847 18.6138 31.4906 20.8823 32.3719 21.952C33.5054 23.3258 34.2992 23.7353 35.3303 23.7353C37.946 23.7353 38.5988 21.3318 38.5988 18.5811L42.6639 18.4535C42.6639 21.3288 42.0972 23.4415 41.1328 25.1106C40.2011 26.7248 38.3851 28.3376 35.3303 28.3376C33.4312 28.3376 31.7488 27.9251 29.8883 26.17C28.4581 24.8228 26.786 22.4297 25.4997 20.2784L21.6734 13.8869C19.7536 10.6793 17.9925 8.28762 16.9732 7.20456C15.8768 6.03991 14.4673 4.63341 12.2181 4.63341C10.3977 4.63341 8.85176 5.91083 7.55802 7.86478L3.63379 5.53398Z" fill="white"/>
<path d="M12.2178 4.63341C10.3974 4.63341 8.8514 5.91083 7.55767 7.86478C5.72834 10.6258 4.60819 14.7385 4.60819 18.6879C4.60819 20.317 4.96575 21.5677 5.43309 22.3244L1.50441 24.9118C0.495536 23.2338 0 21.0321 0 18.5233C0 13.9611 1.25219 9.206 3.63344 5.53398C5.74614 2.27739 8.79503 0 12.292 0L12.2178 4.63341Z" fill="white"/>
<path d="M51.6221 0.895996H56.9528L66.0164 17.2932L75.0814 0.895996H80.2964V27.8389H75.9479V7.1896L67.9985 21.4889H63.9185L55.9706 7.1896V27.8389H51.6221V0.895996ZM93.9222 10.9417C90.8036 10.9417 88.9253 13.2889 88.4757 16.1953H99.06C98.8419 13.2013 97.115 10.9417 93.9222 10.9417ZM84.1643 17.8511C84.1643 11.7355 88.1167 7.28456 93.9978 7.28456C99.7826 7.28456 103.236 11.6791 103.236 18.1775V19.3718H88.4757C88.9995 22.5334 91.0973 24.6639 94.48 24.6639C97.1788 24.6639 98.8657 23.8405 100.465 22.3346L102.775 25.1639C100.599 27.1654 97.8301 28.3196 94.3257 28.3196C87.9594 28.3196 84.1643 23.6773 84.1643 17.8511ZM108.509 11.3275H104.506V7.76674H108.509V1.87817H112.705V7.76674H118.787V11.3275H112.705V20.3525C112.705 23.434 113.69 24.5289 116.112 24.5289C117.217 24.5289 117.85 24.434 118.787 24.2782V27.8004C117.62 28.1297 116.508 28.2811 115.303 28.2811C110.773 28.2811 108.509 25.8063 108.509 20.8525V11.3275ZM136.454 14.7903C135.611 12.6628 133.731 11.096 130.969 11.096C127.378 11.096 125.08 13.6434 125.08 17.7932C125.08 21.8391 127.196 24.5096 130.797 24.5096C133.627 24.5096 135.648 22.8628 136.454 20.8139V14.7903ZM140.649 27.8389H136.531V25.0289C135.38 26.6832 133.285 28.3196 129.892 28.3196C124.435 28.3196 120.788 23.7515 120.788 17.7932C120.788 11.7785 124.522 7.28456 130.123 7.28456C132.892 7.28456 135.064 8.39135 136.531 10.3453V7.76674H140.649V27.8389Z" fill="white"/>
</g>
<defs>
<clipPath id="clip0_396_71">
<rect width="140.649" height="28.3376" fill="white"/>
</clipPath>
</defs>
</svg>
