<svg width="145" height="41" viewBox="0 0 145 41" fill="none" xmlns="http://www.w3.org/2000/svg">
<path d="M31.1706 7.7654C31.1427 7.56174 30.9647 7.44876 30.8171 7.43646C30.6706 7.42416 27.7996 7.38054 27.7996 7.38054C27.7996 7.38054 25.3986 5.04888 25.1614 4.81169C24.9242 4.5745 24.461 4.6461 24.2809 4.6998C24.2787 4.70093 23.83 4.83966 23.0748 5.07349C22.9484 4.66401 22.7626 4.16053 22.4974 3.65481C21.6427 2.02356 20.3907 1.16094 18.878 1.15871C18.8758 1.15871 18.8747 1.15871 18.8724 1.15871C18.7672 1.15871 18.6632 1.16878 18.5581 1.17772C18.5133 1.12402 18.4686 1.07144 18.4216 1.01997C17.7625 0.315105 16.9179 -0.0283761 15.9053 0.00183231C13.9518 0.0577739 12.0062 1.46862 10.4287 3.9748C9.31876 5.73808 8.47403 7.9534 8.23462 9.66854C5.99134 10.3633 4.42274 10.8489 4.38806 10.8601C3.2558 11.2159 3.22 11.2505 3.07231 12.3179C2.96267 13.1246 0 36.0338 0 36.0338L24.828 40.3279L35.5889 37.6527C35.5889 37.6527 31.1986 7.96906 31.1706 7.7654ZM21.8318 5.45837C21.26 5.63515 20.61 5.83654 19.9051 6.05471C19.8906 5.06566 19.7731 3.6895 19.3121 2.50018C20.7946 2.78101 21.5241 4.45814 21.8318 5.45837ZM18.6061 6.45749C17.305 6.86024 15.8851 7.29995 14.4609 7.7408C14.8614 6.20687 15.6211 4.67967 16.5543 3.67831C16.9011 3.30574 17.3866 2.89065 17.9617 2.65346C18.5021 3.78124 18.6196 5.37782 18.6061 6.45749ZM15.9444 1.30191C16.4032 1.29184 16.7892 1.39254 17.1192 1.60959C16.5912 1.88371 16.0809 2.27754 15.6021 2.79108C14.3613 4.12249 13.4103 6.18897 13.031 8.18273C11.8484 8.54857 10.6915 8.90775 9.6264 9.2367C10.2989 6.09835 12.9292 1.38918 15.9444 1.30191Z" fill="white"/>
<path d="M30.8182 7.43748C30.6717 7.42518 27.8007 7.38156 27.8007 7.38156C27.8007 7.38156 25.3997 5.04989 25.1625 4.8127C25.0742 4.72431 24.9545 4.67844 24.8291 4.65942L24.8302 40.3267L35.5901 37.6527C35.5901 37.6527 31.1998 7.97007 31.1718 7.76642C31.1438 7.56276 30.9648 7.44978 30.8182 7.43748Z" fill="white"/>
<path d="M18.8648 12.9702L17.6151 17.6457C17.6151 17.6457 16.2211 17.0114 14.5686 17.1154C12.1451 17.2687 12.1194 18.797 12.144 19.1808C12.276 21.2719 17.7773 21.7284 18.0861 26.6266C18.3289 30.4799 16.042 33.1158 12.7471 33.3239C8.79199 33.5734 6.61475 31.2406 6.61475 31.2406L7.45277 27.6761C7.45277 27.6761 9.64452 29.3297 11.3988 29.2189C12.5446 29.1462 12.954 28.2142 12.9126 27.5552C12.7404 24.8275 8.26053 24.9886 7.9775 20.5066C7.73916 16.7351 10.2163 12.9131 15.6817 12.5685C17.7874 12.4331 18.8648 12.9702 18.8648 12.9702Z" fill="#C2F703"/>
<path d="M49.7593 22.7607C48.522 22.0893 47.8861 21.5234 47.8861 20.7455C47.8861 19.7556 48.7694 19.1197 50.1488 19.1197C51.7546 19.1197 53.1883 19.7911 53.1883 19.7911L54.3191 16.3266C54.3191 16.3266 53.2793 15.5132 50.2187 15.5132C45.9596 15.5132 43.0078 17.9523 43.0078 21.3813C43.0078 23.3255 44.3861 24.8103 46.2249 25.8701C47.7097 26.7179 48.2401 27.3194 48.2401 28.2027C48.2401 29.1216 47.4977 29.8639 46.1195 29.8639C44.0654 29.8639 42.1256 28.803 42.1256 28.803L40.9238 32.2675C40.9238 32.2675 42.716 33.4694 45.731 33.4694C50.1144 33.4694 53.2605 31.3132 53.2605 27.4248C53.2593 25.3407 51.6691 23.8559 49.7593 22.7607Z" fill="white"/>
<path d="M67.2217 15.4788C65.0654 15.4788 63.3686 16.5042 62.0614 18.0589L61.9904 18.0234L63.8635 8.23242H58.9853L54.249 33.152H59.1273L60.753 24.6339C61.3889 21.4169 63.0501 19.4383 64.606 19.4383C65.7012 19.4383 66.1263 20.1806 66.1263 21.2415C66.1263 21.9129 66.0552 22.7263 65.9143 23.3977L64.0766 33.1532H68.9551L70.8633 23.0792C71.0757 22.0183 71.2175 20.7466 71.2175 19.8977C71.2155 17.14 69.7664 15.4788 67.2217 15.4788Z" fill="white"/>
<path d="M82.2441 15.4788C76.3757 15.4788 72.4888 20.781 72.4888 26.6835C72.4888 30.4654 74.8211 33.5049 79.2047 33.5049C84.9662 33.5049 88.8545 28.3448 88.8545 22.3002C88.8545 18.8012 86.8038 15.4788 82.2441 15.4788ZM79.8405 29.7596C78.179 29.7596 77.472 28.3458 77.472 26.5781C77.472 23.786 78.9217 19.2263 81.5726 19.2263C83.3047 19.2263 83.8693 20.711 83.8693 22.1603C83.8693 25.1643 82.4215 29.7596 79.8405 29.7596Z" fill="white"/>
<path d="M101.332 15.4788C98.0393 15.4788 96.1708 18.3773 96.1708 18.3773H96.1009L96.3838 15.7617H92.0714C91.8597 17.5295 91.4699 20.215 91.0821 22.2303L87.6885 40.0799H92.5668L93.9091 32.869H94.0159C94.0159 32.869 95.0167 33.5049 96.8792 33.5049C102.605 33.5049 106.352 27.6379 106.352 21.6987C106.352 18.4129 104.902 15.4788 101.332 15.4788ZM96.6661 29.8295C95.3998 29.8295 94.6504 29.1226 94.6504 29.1226L95.4637 24.5629C96.0296 21.5234 97.6199 19.5081 99.317 19.5081C100.802 19.5081 101.261 20.8864 101.261 22.1948C101.261 25.3407 99.3876 29.8295 96.6661 29.8295Z" fill="white"/>
<path d="M113.315 8.47998C111.76 8.47998 110.523 9.71731 110.523 11.3075C110.523 12.7568 111.442 13.7467 112.82 13.7467H112.891C114.411 13.7467 115.719 12.7213 115.754 10.9191C115.754 9.50532 114.8 8.47998 113.315 8.47998Z" fill="white"/>
<path d="M106.493 33.1519H111.37L114.694 15.8682H109.78L106.493 33.1519Z" fill="white"/>
<path d="M127.1 15.8329H123.707L123.883 15.0195C124.166 13.3582 125.156 11.8734 126.782 11.8734C127.649 11.8734 128.336 12.1209 128.336 12.1209L129.291 8.30355C129.291 8.30355 128.443 7.87964 126.639 7.87964C124.907 7.87964 123.176 8.37453 121.868 9.50532C120.206 10.9192 119.429 12.9687 119.04 15.0195L118.9 15.8329H116.637L115.93 19.5094H118.193L115.612 33.1532H120.491L123.071 19.5094H126.429L127.1 15.8329Z" fill="white"/>
<path d="M138.835 15.8683C138.835 15.8683 135.786 23.5508 134.417 27.7444H134.345C134.253 26.3939 133.144 15.8683 133.144 15.8683H128.018L130.953 31.7382C131.024 32.0912 130.989 32.3042 130.847 32.5516C130.28 33.6469 129.327 34.7078 128.195 35.4858C127.277 36.1571 126.252 36.581 125.439 36.864L126.782 40.9999C127.772 40.7879 129.821 39.9745 131.553 38.3488C133.781 36.2636 135.83 33.0466 137.951 28.6632L143.925 15.8672H138.835V15.8683Z" fill="white"/>
</svg>
