<?xml version="1.0" standalone="no"?>
<!DOCTYPE svg PUBLIC "-//W3C//DTD SVG 20010904//EN"
 "http://www.w3.org/TR/2001/REC-SVG-20010904/DTD/svg10.dtd">
<svg version="1.0" xmlns="http://www.w3.org/2000/svg"
 width="500.000000pt" height="500.000000pt" viewBox="0 0 500.000000 500.000000"
 preserveAspectRatio="xMidYMid meet">

<g transform="translate(0.000000,500.000000) scale(0.100000,-0.100000)"
fill="#000000" stroke="none">
<path d="M0 2500 l0 -2500 2500 0 2500 0 0 2500 0 2500 -2500 0 -2500 0 0
-2500z m699 153 c20 -18 20 -18 2 -42 l-18 -24 -18 26 c-21 33 -55 36 -55 6 0
-12 25 -44 61 -78 66 -63 70 -82 28 -126 -25 -26 -90 -26 -118 -1 -24 22 -28
68 -6 86 12 10 15 9 15 -5 0 -21 53 -75 74 -75 32 0 15 42 -39 99 -61 65 -67
89 -30 126 29 30 74 33 104 8z m335 -4 c83 -65 71 -188 -23 -243 -31 -18 -37
-18 -75 -5 -54 19 -86 66 -86 128 0 106 111 178 184 120z m830 8 c9 -7 26 -47
37 -92 40 -158 39 -155 59 -155 19 0 20 7 20 119 0 87 -3 121 -12 124 -7 2 2
7 21 12 22 5 36 3 41 -4 5 -9 14 -9 36 -1 25 10 31 8 46 -10 22 -28 23 -64 2
-99 -15 -26 -15 -30 6 -72 12 -24 29 -52 38 -61 14 -17 13 -18 -16 -18 -27 0
-35 7 -59 50 -39 69 -53 72 -53 11 0 -30 5 -51 13 -54 6 -3 -31 -6 -82 -6 -68
-1 -92 2 -84 10 12 12 -4 89 -19 89 -5 0 -24 -6 -42 -14 -24 -10 -35 -22 -39
-42 -3 -17 0 -32 6 -36 7 -4 -26 -8 -72 -8 -66 0 -82 3 -73 12 8 8 12 46 11
108 l0 95 -33 -102 c-17 -56 -34 -105 -37 -107 -3 -3 -20 39 -39 92 -31 86
-35 93 -38 63 -2 -19 -2 -63 0 -98 l3 -63 -29 0 c-23 0 -27 3 -18 12 17 17 17
234 0 242 -7 3 7 4 31 3 l44 -2 27 -75 28 -75 22 78 23 77 36 0 36 0 -3 -125
c-3 -119 -2 -125 17 -125 15 0 23 12 36 58 55 191 59 202 75 202 9 0 24 -6 34
-13z m388 -48 l3 -61 33 47 c18 25 30 50 27 56 -4 5 10 8 32 8 21 -1 31 -3 23
-5 -8 -3 -28 -25 -43 -49 l-29 -45 42 -75 c29 -53 47 -75 61 -75 18 0 19 8 19
119 0 86 -3 121 -12 124 -7 3 24 6 70 6 77 1 82 0 82 -20 0 -16 -4 -19 -17
-14 -10 4 -30 10 -45 13 -28 4 -28 3 -28 -48 l0 -52 40 7 c33 6 40 4 40 -9 0
-12 -10 -16 -40 -16 l-40 0 0 -50 c0 -56 9 -61 60 -35 29 15 30 15 30 -10 l0
-25 -126 0 c-81 0 -123 4 -119 10 7 11 -44 110 -57 110 -13 0 -10 -108 5 -113
6 -3 -10 -5 -38 -5 -27 0 -44 2 -37 5 9 3 12 38 12 124 0 88 -3 119 -12 120
-17 1 23 17 44 18 14 1 18 -10 20 -60z m1031 50 c32 -17 32 -17 7 -44 l-23
-25 -23 25 c-13 14 -28 25 -34 25 -15 0 -50 -61 -50 -88 0 -48 47 -105 103
-125 15 -6 17 0 17 42 0 42 -3 49 -22 54 -29 8 -22 13 30 21 l43 6 -3 -56 c-3
-49 -7 -60 -31 -78 -42 -31 -99 -28 -137 9 -65 62 -62 154 5 214 38 33 79 40
118 20z m322 -1 c29 -13 31 -24 8 -50 -16 -18 -17 -18 -38 8 -15 18 -27 25
-38 21 -29 -11 -19 -32 43 -94 33 -33 60 -67 60 -76 0 -9 -11 -28 -24 -44 -61
-71 -187 -1 -131 73 14 18 14 18 15 1 0 -23 53 -77 74 -77 33 0 16 44 -39 101
-59 61 -61 68 -43 102 24 46 63 58 113 35z m297 1 c2 -7 12 -7 33 1 27 10 32
9 52 -15 28 -32 29 -55 3 -88 -11 -14 -20 -29 -20 -34 0 -4 16 -34 35 -65 l34
-58 -29 0 c-24 0 -33 8 -57 52 -15 28 -34 53 -40 56 -17 5 -18 -79 -1 -96 9
-9 3 -12 -27 -12 l-40 0 0 127 c0 104 3 129 15 135 23 10 38 9 42 -3z m643 -1
c31 -14 31 -19 -1 -49 -19 -17 -28 -20 -31 -11 -6 17 -32 42 -44 42 -14 0 -49
-62 -49 -88 0 -57 69 -128 116 -119 37 7 30 -20 -10 -33 -46 -15 -80 -4 -115
36 -56 63 -50 147 15 204 37 32 75 38 119 18z m364 -5 c20 -18 20 -18 2 -42
l-18 -24 -18 26 c-21 33 -55 36 -55 6 0 -12 25 -44 61 -78 66 -63 70 -82 28
-126 -25 -26 -90 -26 -118 -1 -24 22 -28 68 -6 86 12 10 15 9 15 -5 0 -21 53
-75 74 -75 32 0 15 42 -39 99 -61 65 -67 89 -30 126 29 30 74 33 104 8z
m-4604 -2 c-6 -11 35 -201 44 -201 9 0 52 191 45 201 -3 5 6 9 21 9 21 0 24
-3 17 -17 -5 -10 -19 -61 -31 -113 -32 -137 -28 -130 -65 -130 l-32 0 -28 118
c-16 64 -33 123 -39 130 -7 9 0 12 32 12 24 0 40 -4 36 -9z m228 2 c-10 -3
-13 -38 -13 -123 0 -85 3 -120 13 -123 6 -3 -10 -5 -38 -5 -27 0 -44 2 -37 5
9 3 12 38 12 123 0 85 -3 120 -12 123 -7 3 10 5 37 5 28 0 44 -2 38 -5z m290
0 c-10 -3 -13 -38 -13 -123 0 -85 3 -120 13 -123 6 -3 -10 -5 -38 -5 -27 0
-44 2 -37 5 9 3 12 38 12 123 0 85 -3 120 -12 123 -7 3 10 5 37 5 28 0 44 -2
38 -5z m403 -90 l39 -98 3 89 c2 65 -1 92 -10 98 -8 5 -2 8 17 8 l30 0 -3
-130 -3 -130 -29 0 c-26 0 -30 6 -65 93 -20 50 -39 94 -42 97 -2 3 -3 -39 -1
-93 l3 -97 -29 0 c-23 0 -27 3 -18 12 17 17 17 234 0 241 -7 3 5 6 28 6 l41 1
39 -97z m1554 72 c0 -25 -1 -25 -30 -10 -16 8 -34 15 -40 15 -15 0 -13 -213 2
-228 9 -9 1 -12 -38 -11 -27 0 -43 3 -36 6 8 3 12 37 12 119 0 122 -4 129 -48
98 -21 -14 -22 -14 -22 10 l0 26 100 0 100 0 0 -25z m85 -105 l0 -130 -39 0
c-31 0 -37 3 -28 12 16 16 16 220 0 236 -9 9 -3 12 28 12 l39 0 0 -130z m143
30 l37 -95 3 89 c2 65 -1 92 -10 98 -8 5 -2 8 17 8 l30 0 -3 -130 -3 -130 -27
0 c-25 0 -30 8 -69 103 l-42 102 -1 -97 c0 -68 4 -98 13 -101 6 -3 -6 -6 -27
-6 -31 -1 -37 2 -28 11 17 17 17 234 0 242 -7 3 7 4 30 3 l44 -2 36 -95z m802
79 c0 -16 -4 -19 -17 -14 -10 4 -30 10 -45 13 -28 4 -28 3 -28 -48 l0 -52 40
7 c33 6 40 4 40 -9 0 -12 -10 -16 -40 -16 l-40 0 0 -50 c0 -56 9 -61 60 -35
29 15 30 15 30 -10 0 -25 -1 -25 -82 -24 -46 0 -77 3 -70 6 9 3 12 38 12 123
0 85 -3 120 -12 123 -7 3 24 6 70 6 77 1 82 0 82 -20z m314 13 c-7 -5 -3 -40
14 -112 l25 -105 24 90 c13 50 22 100 19 113 -3 19 1 22 28 22 17 0 26 -4 20
-8 -7 -4 -25 -62 -40 -129 l-28 -123 -33 0 c-36 0 -30 -14 -73 160 -12 47 -27
88 -33 92 -7 4 11 8 38 8 28 0 45 -4 39 -8z m221 -122 l0 -130 -39 0 c-31 0
-37 3 -28 12 16 16 16 220 0 236 -9 9 -3 12 28 12 l39 0 0 -130z m395 109 c0
-16 -4 -19 -17 -14 -10 4 -30 10 -45 13 -28 4 -28 3 -28 -48 l0 -52 40 7 c33
6 40 4 40 -9 0 -12 -10 -16 -40 -16 l-40 0 0 -50 c0 -56 9 -61 60 -35 29 15
30 15 30 -10 0 -25 -1 -25 -82 -24 -46 0 -77 3 -70 6 9 3 12 38 12 123 0 85
-3 120 -12 123 -7 3 24 6 70 6 77 1 82 0 82 -20z"/>
<path d="M914 2613 c-38 -58 -9 -146 56 -173 38 -16 55 -3 70 48 12 46 -11 97
-59 129 -43 29 -45 29 -67 -4z"/>
<path d="M1827 2620 c-12 -32 -28 -102 -24 -106 2 -3 16 1 31 7 27 13 27 15 6
89 -6 18 -9 21 -13 10z"/>
<path d="M2030 2574 c0 -50 2 -55 16 -44 40 34 43 100 4 100 -18 0 -20 -7 -20
-56z"/>
<path d="M3900 2574 l0 -57 25 23 c34 32 32 83 -2 88 -22 3 -23 0 -23 -54z"/>
</g>
</svg>
